<?xml version="1.0" standalone="no"?>
<!DOCTYPE svg PUBLIC "-//W3C//DTD SVG 1.1//EN" "http://www.w3.org/Graphics/SVG/1.1/DTD/svg11.dtd">
<svg version="1.1" width="1200" height="326" onload="init(evt)" viewBox="0 0 1200 326" xmlns="http://www.w3.org/2000/svg" xmlns:xlink="http://www.w3.org/1999/xlink">
<!-- Flame graph stack visualization. See https://github.com/brendangregg/FlameGraph for latest version, and http://www.brendangregg.com/flamegraphs.html for examples. -->
<!-- NOTES:  -->
<defs>
	<linearGradient id="background" y1="0" y2="1" x1="0" x2="0" >
		<stop stop-color="#eeeeee" offset="5%" />
		<stop stop-color="#eeeeb0" offset="95%" />
	</linearGradient>
</defs>
<style type="text/css">
	text { font-family:Verdana; font-size:12px; fill:rgb(0,0,0); }
	#search, #ignorecase { opacity:0.1; cursor:pointer; }
	#search:hover, #search.show, #ignorecase:hover, #ignorecase.show { opacity:1; }
	#subtitle { text-anchor:middle; font-color:rgb(160,160,160); }
	#title { text-anchor:middle; font-size:17px}
	#unzoom { cursor:pointer; }
	#frames > *:hover { stroke:black; stroke-width:0.5; cursor:pointer; }
	.hide { display:none; }
	.parent { opacity:0.5; }
</style>
<script type="text/ecmascript">
<![CDATA[
	"use strict";
	var details, searchbtn, unzoombtn, matchedtxt, svg, searching, currentSearchTerm, ignorecase, ignorecaseBtn;
	function init(evt) {
		details = document.getElementById("details").firstChild;
		searchbtn = document.getElementById("search");
		ignorecaseBtn = document.getElementById("ignorecase");
		unzoombtn = document.getElementById("unzoom");
		matchedtxt = document.getElementById("matched");
		svg = document.getElementsByTagName("svg")[0];
		searching = 0;
		currentSearchTerm = null;

		// use GET parameters to restore a flamegraphs state.
		var params = get_params();
		if (params.x && params.y)
			zoom(find_group(document.querySelector('[x="' + params.x + '"][y="' + params.y + '"]')));
                if (params.s) search(params.s);
	}

	// event listeners
	window.addEventListener("click", function(e) {
		var target = find_group(e.target);
		if (target) {
			if (target.nodeName == "a") {
				if (e.ctrlKey === false) return;
				e.preventDefault();
			}
			if (target.classList.contains("parent")) unzoom();
			zoom(target);
			if (!document.querySelector('.parent')) {
				clearzoom();
				return;
			}

			// set parameters for zoom state
			var el = target.querySelector("rect");
			if (el && el.attributes && el.attributes.y && el.attributes._orig_x) {
				var params = get_params()
				params.x = el.attributes._orig_x.value;
				params.y = el.attributes.y.value;
				history.replaceState(null, null, parse_params(params));
			}
		}
		else if (e.target.id == "unzoom") clearzoom();
		else if (e.target.id == "search") search_prompt();
		else if (e.target.id == "ignorecase") toggle_ignorecase();
	}, false)

	// mouse-over for info
	// show
	window.addEventListener("mouseover", function(e) {
		var target = find_group(e.target);
		if (target) details.nodeValue = "Function: " + g_to_text(target);
	}, false)

	// clear
	window.addEventListener("mouseout", function(e) {
		var target = find_group(e.target);
		if (target) details.nodeValue = ' ';
	}, false)

	// ctrl-F for search
	// ctrl-I to toggle case-sensitive search
	window.addEventListener("keydown",function (e) {
		if (e.keyCode === 114 || (e.ctrlKey && e.keyCode === 70)) {
			e.preventDefault();
			search_prompt();
		}
		else if (e.ctrlKey && e.keyCode === 73) {
			e.preventDefault();
			toggle_ignorecase();
		}
	}, false)

	// functions
	function get_params() {
		var params = {};
		var paramsarr = window.location.search.substr(1).split('&');
		for (var i = 0; i < paramsarr.length; ++i) {
			var tmp = paramsarr[i].split("=");
			if (!tmp[0] || !tmp[1]) continue;
			params[tmp[0]]  = decodeURIComponent(tmp[1]);
		}
		return params;
	}
	function parse_params(params) {
		var uri = "?";
		for (var key in params) {
			uri += key + '=' + encodeURIComponent(params[key]) + '&';
		}
		if (uri.slice(-1) == "&")
			uri = uri.substring(0, uri.length - 1);
		if (uri == '?')
			uri = window.location.href.split('?')[0];
		return uri;
	}
	function find_child(node, selector) {
		var children = node.querySelectorAll(selector);
		if (children.length) return children[0];
	}
	function find_group(node) {
		var parent = node.parentElement;
		if (!parent) return;
		if (parent.id == "frames") return node;
		return find_group(parent);
	}
	function orig_save(e, attr, val) {
		if (e.attributes["_orig_" + attr] != undefined) return;
		if (e.attributes[attr] == undefined) return;
		if (val == undefined) val = e.attributes[attr].value;
		e.setAttribute("_orig_" + attr, val);
	}
	function orig_load(e, attr) {
		if (e.attributes["_orig_"+attr] == undefined) return;
		e.attributes[attr].value = e.attributes["_orig_" + attr].value;
		e.removeAttribute("_orig_"+attr);
	}
	function g_to_text(e) {
		var text = find_child(e, "title").firstChild.nodeValue;
		return (text)
	}
	function g_to_func(e) {
		var func = g_to_text(e);
		// if there's any manipulation we want to do to the function
		// name before it's searched, do it here before returning.
		return (func);
	}
	function update_text(e) {
		var r = find_child(e, "rect");
		var t = find_child(e, "text");
		var w = parseFloat(r.attributes.width.value) -3;
		var txt = find_child(e, "title").textContent.replace(/\([^(]*\)$/,"");
		t.attributes.x.value = parseFloat(r.attributes.x.value) + 3;

		// Smaller than this size won't fit anything
		if (w < 2 * 12 * 0.59) {
			t.textContent = "";
			return;
		}

		t.textContent = txt;
		// Fit in full text width
		if (/^ *$/.test(txt) || t.getSubStringLength(0, txt.length) < w)
			return;

		for (var x = txt.length - 2; x > 0; x--) {
			if (t.getSubStringLength(0, x + 2) <= w) {
				t.textContent = txt.substring(0, x) + "..";
				return;
			}
		}
		t.textContent = "";
	}

	// zoom
	function zoom_reset(e) {
		if (e.attributes != undefined) {
			orig_load(e, "x");
			orig_load(e, "width");
		}
		if (e.childNodes == undefined) return;
		for (var i = 0, c = e.childNodes; i < c.length; i++) {
			zoom_reset(c[i]);
		}
	}
	function zoom_child(e, x, ratio) {
		if (e.attributes != undefined) {
			if (e.attributes.x != undefined) {
				orig_save(e, "x");
				e.attributes.x.value = (parseFloat(e.attributes.x.value) - x - 10) * ratio + 10;
				if (e.tagName == "text")
					e.attributes.x.value = find_child(e.parentNode, "rect[x]").attributes.x.value + 3;
			}
			if (e.attributes.width != undefined) {
				orig_save(e, "width");
				e.attributes.width.value = parseFloat(e.attributes.width.value) * ratio;
			}
		}

		if (e.childNodes == undefined) return;
		for (var i = 0, c = e.childNodes; i < c.length; i++) {
			zoom_child(c[i], x - 10, ratio);
		}
	}
	function zoom_parent(e) {
		if (e.attributes) {
			if (e.attributes.x != undefined) {
				orig_save(e, "x");
				e.attributes.x.value = 10;
			}
			if (e.attributes.width != undefined) {
				orig_save(e, "width");
				e.attributes.width.value = parseInt(svg.width.baseVal.value) - (10 * 2);
			}
		}
		if (e.childNodes == undefined) return;
		for (var i = 0, c = e.childNodes; i < c.length; i++) {
			zoom_parent(c[i]);
		}
	}
	function zoom(node) {
		var attr = find_child(node, "rect").attributes;
		var width = parseFloat(attr.width.value);
		var xmin = parseFloat(attr.x.value);
		var xmax = parseFloat(xmin + width);
		var ymin = parseFloat(attr.y.value);
		var ratio = (svg.width.baseVal.value - 2 * 10) / width;

		// XXX: Workaround for JavaScript float issues (fix me)
		var fudge = 0.0001;

		unzoombtn.classList.remove("hide");

		var el = document.getElementById("frames").children;
		for (var i = 0; i < el.length; i++) {
			var e = el[i];
			var a = find_child(e, "rect").attributes;
			var ex = parseFloat(a.x.value);
			var ew = parseFloat(a.width.value);
			var upstack;
			// Is it an ancestor
			if (0 == 0) {
				upstack = parseFloat(a.y.value) > ymin;
			} else {
				upstack = parseFloat(a.y.value) < ymin;
			}
			if (upstack) {
				// Direct ancestor
				if (ex <= xmin && (ex+ew+fudge) >= xmax) {
					e.classList.add("parent");
					zoom_parent(e);
					update_text(e);
				}
				// not in current path
				else
					e.classList.add("hide");
			}
			// Children maybe
			else {
				// no common path
				if (ex < xmin || ex + fudge >= xmax) {
					e.classList.add("hide");
				}
				else {
					zoom_child(e, xmin, ratio);
					update_text(e);
				}
			}
		}
		search();
	}
	function unzoom() {
		unzoombtn.classList.add("hide");
		var el = document.getElementById("frames").children;
		for(var i = 0; i < el.length; i++) {
			el[i].classList.remove("parent");
			el[i].classList.remove("hide");
			zoom_reset(el[i]);
			update_text(el[i]);
		}
		search();
	}
	function clearzoom() {
		unzoom();

		// remove zoom state
		var params = get_params();
		if (params.x) delete params.x;
		if (params.y) delete params.y;
		history.replaceState(null, null, parse_params(params));
	}

	// search
	function toggle_ignorecase() {
		ignorecase = !ignorecase;
		if (ignorecase) {
			ignorecaseBtn.classList.add("show");
		} else {
			ignorecaseBtn.classList.remove("show");
		}
		reset_search();
		search();
	}
	function reset_search() {
		var el = document.querySelectorAll("#frames rect");
		for (var i = 0; i < el.length; i++) {
			orig_load(el[i], "fill")
		}
		var params = get_params();
		delete params.s;
		history.replaceState(null, null, parse_params(params));
	}
	function search_prompt() {
		if (!searching) {
			var term = prompt("Enter a search term (regexp " +
			    "allowed, eg: ^ext4_)"
			    + (ignorecase ? ", ignoring case" : "")
			    + "\nPress Ctrl-i to toggle case sensitivity", "");
			if (term != null) search(term);
		} else {
			reset_search();
			searching = 0;
			currentSearchTerm = null;
			searchbtn.classList.remove("show");
			searchbtn.firstChild.nodeValue = "Search"
			matchedtxt.classList.add("hide");
			matchedtxt.firstChild.nodeValue = ""
		}
	}
	function search(term) {
		if (term) currentSearchTerm = term;

		var re = new RegExp(currentSearchTerm, ignorecase ? 'i' : '');
		var el = document.getElementById("frames").children;
		var matches = new Object();
		var maxwidth = 0;
		for (var i = 0; i < el.length; i++) {
			var e = el[i];
			var func = g_to_func(e);
			var rect = find_child(e, "rect");
			if (func == null || rect == null)
				continue;

			// Save max width. Only works as we have a root frame
			var w = parseFloat(rect.attributes.width.value);
			if (w > maxwidth)
				maxwidth = w;

			if (func.match(re)) {
				// highlight
				var x = parseFloat(rect.attributes.x.value);
				orig_save(rect, "fill");
				rect.attributes.fill.value = "rgb(230,0,230)";

				// remember matches
				if (matches[x] == undefined) {
					matches[x] = w;
				} else {
					if (w > matches[x]) {
						// overwrite with parent
						matches[x] = w;
					}
				}
				searching = 1;
			}
		}
		if (!searching)
			return;
		var params = get_params();
		params.s = currentSearchTerm;
		history.replaceState(null, null, parse_params(params));

		searchbtn.classList.add("show");
		searchbtn.firstChild.nodeValue = "Reset Search";

		// calculate percent matched, excluding vertical overlap
		var count = 0;
		var lastx = -1;
		var lastw = 0;
		var keys = Array();
		for (k in matches) {
			if (matches.hasOwnProperty(k))
				keys.push(k);
		}
		// sort the matched frames by their x location
		// ascending, then width descending
		keys.sort(function(a, b){
			return a - b;
		});
		// Step through frames saving only the biggest bottom-up frames
		// thanks to the sort order. This relies on the tree property
		// where children are always smaller than their parents.
		var fudge = 0.0001;	// JavaScript floating point
		for (var k in keys) {
			var x = parseFloat(keys[k]);
			var w = matches[keys[k]];
			if (x >= lastx + lastw - fudge) {
				count += w;
				lastx = x;
				lastw = w;
			}
		}
		// display matched percent
		matchedtxt.classList.remove("hide");
		var pct = 100 * count / maxwidth;
		if (pct != 100) pct = pct.toFixed(1)
		matchedtxt.firstChild.nodeValue = "Matched: " + pct + "%";
	}
]]>
</script>
<rect x="0.0" y="0" width="1200.0" height="326.0" fill="url(#background)"  />
<text id="title" x="600.00" y="24" >Flame Graph</text>
<text id="details" x="10.00" y="309" > </text>
<text id="unzoom" x="10.00" y="24" class="hide">Reset Zoom</text>
<text id="search" x="1090.00" y="24" >Search</text>
<text id="ignorecase" x="1174.00" y="24" >ic</text>
<text id="matched" x="1090.00" y="309" > </text>
<g id="frames">
<g >
<title>module.py:745:&lt;lambda&gt; (30,848 bytes, 0.03%)</title><rect x="720.9" y="133" width="0.3" height="15.0" fill="rgb(231,223,14)" rx="2" ry="2" />
<text  x="723.92" y="143.5" ></text>
</g>
<g >
<title>active_allocated (69,086,208 bytes, 62.16%)</title><rect x="10.0" y="245" width="733.4" height="15.0" fill="rgb(235,29,3)" rx="2" ry="2" />
<text  x="13.00" y="255.5" >active_allocated</text>
</g>
<g >
<title>conv.py:459:_conv_forward (200,704 bytes, 0.18%)</title><rect x="242.2" y="69" width="2.2" height="15.0" fill="rgb(230,34,36)" rx="2" ry="2" />
<text  x="245.22" y="79.5" ></text>
</g>
<g >
<title>conv.py:463:forward (401,408 bytes, 0.36%)</title><rect x="179.1" y="53" width="4.2" height="15.0" fill="rgb(226,193,45)" rx="2" ry="2" />
<text  x="182.08" y="63.5" ></text>
</g>
<g >
<title>module.py:1186:_call_impl (3,617,792 bytes, 3.25%)</title><rect x="179.1" y="133" width="38.4" height="15.0" fill="rgb(224,193,11)" rx="2" ry="2" />
<text  x="182.07" y="143.5" >mod..</text>
</g>
<g >
<title>conv.py:459:_conv_forward (100,352 bytes, 0.09%)</title><rect x="236.8" y="37" width="1.1" height="15.0" fill="rgb(243,105,1)" rx="2" ry="2" />
<text  x="239.81" y="47.5" ></text>
</g>
<g >
<title>module.py:1186:_call_impl (3,617,792 bytes, 3.25%)</title><rect x="179.1" y="165" width="38.4" height="15.0" fill="rgb(221,138,25)" rx="2" ry="2" />
<text  x="182.07" y="175.5" >mod..</text>
</g>
<g >
<title>module.py:1186:_call_impl (2,408,448 bytes, 2.17%)</title><rect x="85.3" y="165" width="25.6" height="15.0" fill="rgb(239,20,32)" rx="2" ry="2" />
<text  x="88.30" y="175.5" >m..</text>
</g>
<g >
<title>functional.py:782:_max_pool2d (2,408,448 bytes, 2.17%)</title><rect x="85.3" y="117" width="25.6" height="15.0" fill="rgb(246,67,33)" rx="2" ry="2" />
<text  x="88.30" y="127.5" >f..</text>
</g>
<g >
<title>resnet.py:96:forward (401,408 bytes, 0.36%)</title><rect x="228.2" y="117" width="4.3" height="15.0" fill="rgb(243,167,0)" rx="2" ry="2" />
<text  x="231.20" y="127.5" ></text>
</g>
<g >
<title>batchnorm.py:170:forward (3,211,776 bytes, 2.89%)</title><rect x="51.2" y="149" width="34.1" height="15.0" fill="rgb(250,7,35)" rx="2" ry="2" />
<text  x="54.20" y="159.5" >ba..</text>
</g>
<g >
<title>conv.py:463:forward (1,605,632 bytes, 1.44%)</title><rect x="110.9" y="85" width="17.0" height="15.0" fill="rgb(243,169,13)" rx="2" ry="2" />
<text  x="113.87" y="95.5" ></text>
</g>
<g >
<title>conv.py:463:forward (1,181,952 bytes, 1.06%)</title><rect x="818.4" y="85" width="12.5" height="15.0" fill="rgb(209,132,41)" rx="2" ry="2" />
<text  x="821.38" y="95.5" ></text>
</g>
<g >
<title>conv.py:459:_conv_forward (1,605,632 bytes, 1.44%)</title><rect x="110.9" y="69" width="17.0" height="15.0" fill="rgb(246,85,42)" rx="2" ry="2" />
<text  x="113.87" y="79.5" ></text>
</g>
<g >
<title>module.py:657:_apply (43,972,608 bytes, 39.56%)</title><rect x="254.1" y="149" width="466.8" height="15.0" fill="rgb(217,138,20)" rx="2" ry="2" />
<text  x="257.09" y="159.5" >module.py:657:_apply</text>
</g>
<g >
<title>module.py:1186:_call_impl (1,605,632 bytes, 1.44%)</title><rect x="145.0" y="101" width="17.0" height="15.0" fill="rgb(246,48,20)" rx="2" ry="2" />
<text  x="147.97" y="111.5" ></text>
</g>
<g >
<title>resnet.py:92:forward (802,816 bytes, 0.72%)</title><rect x="183.3" y="117" width="8.6" height="15.0" fill="rgb(240,152,22)" rx="2" ry="2" />
<text  x="186.34" y="127.5" ></text>
</g>
<g >
<title>resnet.py:96:forward (26,218,496 bytes, 23.59%)</title><rect x="900.5" y="117" width="278.4" height="15.0" fill="rgb(222,18,0)" rx="2" ry="2" />
<text  x="903.52" y="127.5" >resnet.py:96:forward</text>
</g>
<g >
<title>conv.py:459:_conv_forward (802,816 bytes, 0.72%)</title><rect x="200.4" y="69" width="8.5" height="15.0" fill="rgb(252,194,50)" rx="2" ry="2" />
<text  x="203.41" y="79.5" ></text>
</g>
<g >
<title>resnet.py:285:forward (21,620,128 bytes, 19.45%)</title><rect x="17.1" y="197" width="229.5" height="15.0" fill="rgb(238,91,42)" rx="2" ry="2" />
<text  x="20.11" y="207.5" >resnet.py:285:forward</text>
</g>
<g >
<title>conv.py:459:_conv_forward (401,408 bytes, 0.36%)</title><rect x="228.2" y="69" width="4.3" height="15.0" fill="rgb(242,77,24)" rx="2" ry="2" />
<text  x="231.20" y="79.5" ></text>
</g>
<g >
<title>inactive (42,062,848 bytes, 37.84%)</title><rect x="743.4" y="245" width="446.6" height="15.0" fill="rgb(234,37,39)" rx="2" ry="2" />
<text  x="746.45" y="255.5" >inactive</text>
</g>
<g >
<title>conv.py:463:forward (3,211,264 bytes, 2.89%)</title><rect x="17.1" y="149" width="34.1" height="15.0" fill="rgb(239,203,27)" rx="2" ry="2" />
<text  x="20.11" y="159.5" >co..</text>
</g>
<g >
<title>module.py:745:&lt;lambda&gt; (2,090,144 bytes, 1.88%)</title><rect x="721.2" y="165" width="22.2" height="15.0" fill="rgb(213,87,7)" rx="2" ry="2" />
<text  x="724.25" y="175.5" >m..</text>
</g>
<g >
<title>container.py:204:forward (6,424,576 bytes, 5.78%)</title><rect x="110.9" y="149" width="68.2" height="15.0" fill="rgb(253,133,26)" rx="2" ry="2" />
<text  x="113.87" y="159.5" >contain..</text>
</g>
<g >
<title>batchnorm.py:170:forward (405,504 bytes, 0.36%)</title><rect x="223.9" y="85" width="4.3" height="15.0" fill="rgb(231,132,54)" rx="2" ry="2" />
<text  x="226.89" y="95.5" ></text>
</g>
<g >
<title>module.py:634:_apply (702,488 bytes, 0.63%)</title><rect x="246.6" y="149" width="7.5" height="15.0" fill="rgb(246,199,26)" rx="2" ry="2" />
<text  x="249.63" y="159.5" ></text>
</g>
<g >
<title>container.py:204:forward (402,432 bytes, 0.36%)</title><rect x="179.1" y="85" width="4.2" height="15.0" fill="rgb(242,159,12)" rx="2" ry="2" />
<text  x="182.07" y="95.5" ></text>
</g>
<g >
<title>conv.py:459:_conv_forward (401,408 bytes, 0.36%)</title><rect x="219.6" y="69" width="4.3" height="15.0" fill="rgb(214,104,13)" rx="2" ry="2" />
<text  x="222.63" y="79.5" ></text>
</g>
<g >
<title>module.py:1186:_call_impl (35,004,672 bytes, 31.49%)</title><rect x="818.4" y="213" width="371.6" height="15.0" fill="rgb(229,145,13)" rx="2" ry="2" />
<text  x="821.38" y="223.5" >module.py:1186:_call_impl</text>
</g>
<g >
<title>conv.py:463:forward (200,704 bytes, 0.18%)</title><rect x="237.9" y="85" width="2.1" height="15.0" fill="rgb(242,65,27)" rx="2" ry="2" />
<text  x="240.87" y="95.5" ></text>
</g>
<g >
<title>module.py:1186:_call_impl (802,816 bytes, 0.72%)</title><rect x="183.3" y="101" width="8.6" height="15.0" fill="rgb(205,9,49)" rx="2" ry="2" />
<text  x="186.34" y="111.5" ></text>
</g>
<g >
<title>module.py:1186:_call_impl (104,448 bytes, 0.09%)</title><rect x="236.8" y="69" width="1.1" height="15.0" fill="rgb(234,12,43)" rx="2" ry="2" />
<text  x="239.76" y="79.5" ></text>
</g>
<g >
<title>conv.py:459:_conv_forward (802,816 bytes, 0.72%)</title><rect x="183.3" y="69" width="8.6" height="15.0" fill="rgb(220,143,23)" rx="2" ry="2" />
<text  x="186.34" y="79.5" ></text>
</g>
<g >
<title>container.py:204:forward (3,617,792 bytes, 3.25%)</title><rect x="179.1" y="149" width="38.4" height="15.0" fill="rgb(214,98,1)" rx="2" ry="2" />
<text  x="182.07" y="159.5" >con..</text>
</g>
<g >
<title>module.py:1186:_call_impl (21,620,128 bytes, 19.45%)</title><rect x="17.1" y="213" width="229.5" height="15.0" fill="rgb(225,97,36)" rx="2" ry="2" />
<text  x="20.11" y="223.5" >module.py:1186:_call_impl</text>
</g>
<g >
<title>module.py:1186:_call_impl (1,606,656 bytes, 1.45%)</title><rect x="162.0" y="101" width="17.1" height="15.0" fill="rgb(233,172,38)" rx="2" ry="2" />
<text  x="165.01" y="111.5" ></text>
</g>
<g >
<title>module.py:1186:_call_impl (6,555,648 bytes, 5.90%)</title><rect x="830.9" y="101" width="69.6" height="15.0" fill="rgb(232,127,39)" rx="2" ry="2" />
<text  x="833.93" y="111.5" >module...</text>
</g>
<g >
<title>resnet.py:97:forward (208,896 bytes, 0.19%)</title><rect x="244.4" y="117" width="2.2" height="15.0" fill="rgb(217,101,5)" rx="2" ry="2" />
<text  x="247.35" y="127.5" ></text>
</g>
<g >
<title>resnet.py:96:forward (802,816 bytes, 0.72%)</title><rect x="200.4" y="117" width="8.5" height="15.0" fill="rgb(249,212,52)" rx="2" ry="2" />
<text  x="203.41" y="127.5" ></text>
</g>
<g >
<title>conv.py:463:forward (401,408 bytes, 0.36%)</title><rect x="219.6" y="85" width="4.3" height="15.0" fill="rgb(247,206,51)" rx="2" ry="2" />
<text  x="222.63" y="95.5" ></text>
</g>
<g >
<title>module.py:1186:_call_impl (804,864 bytes, 0.72%)</title><rect x="208.9" y="101" width="8.6" height="15.0" fill="rgb(235,100,3)" rx="2" ry="2" />
<text  x="211.93" y="111.5" ></text>
</g>
<g >
<title>module.py:1186:_call_impl (1,181,952 bytes, 1.06%)</title><rect x="818.4" y="101" width="12.5" height="15.0" fill="rgb(206,119,15)" rx="2" ry="2" />
<text  x="821.38" y="111.5" ></text>
</g>
<g >
<title>stream_0 (111,149,056 bytes, 100.00%)</title><rect x="10.0" y="261" width="1180.0" height="15.0" fill="rgb(222,200,8)" rx="2" ry="2" />
<text  x="13.00" y="271.5" >stream_0</text>
</g>
<g >
<title>module.py:1186:_call_impl (200,704 bytes, 0.18%)</title><rect x="237.9" y="101" width="2.1" height="15.0" fill="rgb(216,12,19)" rx="2" ry="2" />
<text  x="240.87" y="111.5" ></text>
</g>
<g >
<title>functional.py:2444:batch_norm (1,606,656 bytes, 1.45%)</title><rect x="162.0" y="69" width="17.1" height="15.0" fill="rgb(238,171,18)" rx="2" ry="2" />
<text  x="165.01" y="79.5" ></text>
</g>
<g >
<title>resnet.py:96:forward (200,704 bytes, 0.18%)</title><rect x="242.2" y="117" width="2.2" height="15.0" fill="rgb(232,152,13)" rx="2" ry="2" />
<text  x="245.22" y="127.5" ></text>
</g>
<g >
<title>module.py:1186:_call_impl (3,211,776 bytes, 2.89%)</title><rect x="51.2" y="165" width="34.1" height="15.0" fill="rgb(213,116,38)" rx="2" ry="2" />
<text  x="54.20" y="175.5" >mo..</text>
</g>
<g >
<title>resnet.py:93:forward (804,864 bytes, 0.72%)</title><rect x="191.9" y="117" width="8.5" height="15.0" fill="rgb(214,208,19)" rx="2" ry="2" />
<text  x="194.87" y="127.5" ></text>
</g>
<g >
<title>resnet.py:92:forward (401,408 bytes, 0.36%)</title><rect x="219.6" y="117" width="4.3" height="15.0" fill="rgb(242,135,50)" rx="2" ry="2" />
<text  x="222.63" y="127.5" ></text>
</g>
<g >
<title>conv.py:459:_conv_forward (200,704 bytes, 0.18%)</title><rect x="217.5" y="37" width="2.1" height="15.0" fill="rgb(224,90,49)" rx="2" ry="2" />
<text  x="220.50" y="47.5" ></text>
</g>
<g >
<title>module.py:1186:_call_impl (104,448 bytes, 0.09%)</title><rect x="236.8" y="101" width="1.1" height="15.0" fill="rgb(220,151,44)" rx="2" ry="2" />
<text  x="239.76" y="111.5" ></text>
</g>
<g >
<title>module.py:1186:_call_impl (402,432 bytes, 0.36%)</title><rect x="179.1" y="101" width="4.2" height="15.0" fill="rgb(233,53,20)" rx="2" ry="2" />
<text  x="182.07" y="111.5" ></text>
</g>
<g >
<title>module.py:745:&lt;lambda&gt; (43,972,608 bytes, 39.56%)</title><rect x="254.1" y="133" width="466.8" height="15.0" fill="rgb(209,216,54)" rx="2" ry="2" />
<text  x="257.09" y="143.5" >module.py:745:&lt;lambda&gt;</text>
</g>
<g >
<title>module.py:1186:_call_impl (923,648 bytes, 0.83%)</title><rect x="236.8" y="133" width="9.8" height="15.0" fill="rgb(216,155,47)" rx="2" ry="2" />
<text  x="239.76" y="143.5" ></text>
</g>
<g >
<title>resnet.py:100:forward (202,752 bytes, 0.18%)</title><rect x="217.5" y="117" width="2.1" height="15.0" fill="rgb(240,142,23)" rx="2" ry="2" />
<text  x="220.48" y="127.5" ></text>
</g>
<g >
<title>module.py:1186:_call_impl (202,752 bytes, 0.18%)</title><rect x="217.5" y="69" width="2.1" height="15.0" fill="rgb(224,154,40)" rx="2" ry="2" />
<text  x="220.48" y="79.5" ></text>
</g>
<g >
<title>resnet.py:92:forward (1,181,952 bytes, 1.06%)</title><rect x="818.4" y="117" width="12.5" height="15.0" fill="rgb(245,14,31)" rx="2" ry="2" />
<text  x="821.38" y="127.5" ></text>
</g>
<g >
<title>eg.py:10:&lt;module&gt; (602,112 bytes, 0.54%)</title><rect x="10.7" y="229" width="6.4" height="15.0" fill="rgb(249,94,45)" rx="2" ry="2" />
<text  x="13.72" y="239.5" ></text>
</g>
<g >
<title>module.py:1186:_call_impl (1,606,656 bytes, 1.45%)</title><rect x="127.9" y="101" width="17.1" height="15.0" fill="rgb(208,94,27)" rx="2" ry="2" />
<text  x="130.91" y="111.5" ></text>
</g>
<g >
<title>resnet.py:273:_forward_impl (6,424,576 bytes, 5.78%)</title><rect x="110.9" y="181" width="68.2" height="15.0" fill="rgb(218,71,34)" rx="2" ry="2" />
<text  x="113.87" y="191.5" >resnet...</text>
</g>
<g >
<title>module.py:1186:_call_impl (7,737,600 bytes, 6.96%)</title><rect x="818.4" y="165" width="82.1" height="15.0" fill="rgb(229,30,49)" rx="2" ry="2" />
<text  x="821.38" y="175.5" >module.py..</text>
</g>
<g >
<title>conv.py:463:forward (6,555,648 bytes, 5.90%)</title><rect x="830.9" y="85" width="69.6" height="15.0" fill="rgb(218,223,42)" rx="2" ry="2" />
<text  x="833.93" y="95.5" >conv.py..</text>
</g>
<g >
<title>conv.py:463:forward (200,704 bytes, 0.18%)</title><rect x="217.5" y="53" width="2.1" height="15.0" fill="rgb(234,34,46)" rx="2" ry="2" />
<text  x="220.50" y="63.5" ></text>
</g>
<g >
<title>conv.py:463:forward (100,352 bytes, 0.09%)</title><rect x="236.8" y="53" width="1.1" height="15.0" fill="rgb(251,77,22)" rx="2" ry="2" />
<text  x="239.81" y="63.5" ></text>
</g>
<g >
<title>conv.py:459:_conv_forward (1,605,632 bytes, 1.44%)</title><rect x="145.0" y="69" width="17.0" height="15.0" fill="rgb(239,148,9)" rx="2" ry="2" />
<text  x="147.97" y="79.5" ></text>
</g>
<g >
<title>conv.py:459:_conv_forward (1,181,952 bytes, 1.06%)</title><rect x="818.4" y="69" width="12.5" height="15.0" fill="rgb(238,158,30)" rx="2" ry="2" />
<text  x="821.38" y="79.5" ></text>
</g>
<g >
<title>resnet.py:92:forward (200,704 bytes, 0.18%)</title><rect x="237.9" y="117" width="2.1" height="15.0" fill="rgb(220,195,29)" rx="2" ry="2" />
<text  x="240.87" y="127.5" ></text>
</g>
<g >
<title>&lt;gaps&gt; (67,360 bytes, 0.06%)</title><rect x="10.0" y="229" width="0.7" height="15.0" fill="rgb(235,129,28)" rx="2" ry="2" />
<text  x="13.00" y="239.5" ></text>
</g>
<g >
<title>module.py:1186:_call_impl (26,218,496 bytes, 23.59%)</title><rect x="900.5" y="165" width="278.4" height="15.0" fill="rgb(236,172,32)" rx="2" ry="2" />
<text  x="903.52" y="175.5" >module.py:1186:_call_impl</text>
</g>
<g >
<title>conv.py:463:forward (1,605,632 bytes, 1.44%)</title><rect x="145.0" y="85" width="17.0" height="15.0" fill="rgb(216,88,0)" rx="2" ry="2" />
<text  x="147.97" y="95.5" ></text>
</g>
<g >
<title>resnet.py:285:forward (35,004,672 bytes, 31.49%)</title><rect x="818.4" y="197" width="371.6" height="15.0" fill="rgb(233,85,11)" rx="2" ry="2" />
<text  x="821.38" y="207.5" >resnet.py:285:forward</text>
</g>
<g >
<title>module.py:1186:_call_impl (401,408 bytes, 0.36%)</title><rect x="228.2" y="101" width="4.3" height="15.0" fill="rgb(208,197,35)" rx="2" ry="2" />
<text  x="231.20" y="111.5" ></text>
</g>
<g >
<title>resnet.py:93:forward (405,504 bytes, 0.36%)</title><rect x="223.9" y="117" width="4.3" height="15.0" fill="rgb(251,41,49)" rx="2" ry="2" />
<text  x="226.89" y="127.5" ></text>
</g>
<g >
<title>functional.py:2444:batch_norm (208,896 bytes, 0.19%)</title><rect x="240.0" y="69" width="2.2" height="15.0" fill="rgb(226,28,33)" rx="2" ry="2" />
<text  x="243.00" y="79.5" ></text>
</g>
<g >
<title>module.py:1186:_call_impl (405,504 bytes, 0.36%)</title><rect x="223.9" y="101" width="4.3" height="15.0" fill="rgb(230,221,0)" rx="2" ry="2" />
<text  x="226.89" y="111.5" ></text>
</g>
<g >
<title>pooling.py:166:forward (2,408,448 bytes, 2.17%)</title><rect x="85.3" y="149" width="25.6" height="15.0" fill="rgb(242,101,23)" rx="2" ry="2" />
<text  x="88.30" y="159.5" >p..</text>
</g>
<g >
<title>conv.py:459:_conv_forward (26,218,496 bytes, 23.59%)</title><rect x="900.5" y="69" width="278.4" height="15.0" fill="rgb(237,9,26)" rx="2" ry="2" />
<text  x="903.52" y="79.5" >conv.py:459:_conv_forward</text>
</g>
<g >
<title>container.py:204:forward (202,752 bytes, 0.18%)</title><rect x="217.5" y="85" width="2.1" height="15.0" fill="rgb(235,126,44)" rx="2" ry="2" />
<text  x="220.48" y="95.5" ></text>
</g>
<g >
<title>batchnorm.py:170:forward (804,864 bytes, 0.72%)</title><rect x="191.9" y="85" width="8.5" height="15.0" fill="rgb(248,36,14)" rx="2" ry="2" />
<text  x="194.87" y="95.5" ></text>
</g>
<g >
<title>module.py:1186:_call_impl (7,737,600 bytes, 6.96%)</title><rect x="818.4" y="133" width="82.1" height="15.0" fill="rgb(205,94,46)" rx="2" ry="2" />
<text  x="821.38" y="143.5" >module.py..</text>
</g>
<g >
<title>functional.py:2444:batch_norm (405,504 bytes, 0.36%)</title><rect x="232.5" y="69" width="4.3" height="15.0" fill="rgb(246,123,54)" rx="2" ry="2" />
<text  x="235.46" y="79.5" ></text>
</g>
<g >
<title>functional.py:2444:batch_norm (804,864 bytes, 0.72%)</title><rect x="208.9" y="69" width="8.6" height="15.0" fill="rgb(233,109,28)" rx="2" ry="2" />
<text  x="211.93" y="79.5" ></text>
</g>
<g >
<title>functional.py:2444:batch_norm (1,606,656 bytes, 1.45%)</title><rect x="127.9" y="69" width="17.1" height="15.0" fill="rgb(231,184,13)" rx="2" ry="2" />
<text  x="130.91" y="79.5" ></text>
</g>
<g >
<title>module.py:681:_apply (30,848 bytes, 0.03%)</title><rect x="720.9" y="149" width="0.3" height="15.0" fill="rgb(229,206,21)" rx="2" ry="2" />
<text  x="723.92" y="159.5" ></text>
</g>
<g >
<title>resnet.py:93:forward (208,896 bytes, 0.19%)</title><rect x="240.0" y="117" width="2.2" height="15.0" fill="rgb(218,210,19)" rx="2" ry="2" />
<text  x="243.00" y="127.5" ></text>
</g>
<g >
<title>functional.py:2444:batch_norm (208,896 bytes, 0.19%)</title><rect x="244.4" y="69" width="2.2" height="15.0" fill="rgb(243,193,54)" rx="2" ry="2" />
<text  x="247.35" y="79.5" ></text>
</g>
<g >
<title>module.py:745:&lt;lambda&gt; (695,296 bytes, 0.63%)</title><rect x="246.6" y="117" width="7.4" height="15.0" fill="rgb(254,133,14)" rx="2" ry="2" />
<text  x="249.63" y="127.5" ></text>
</g>
<g >
<title>batchnorm.py:170:forward (405,504 bytes, 0.36%)</title><rect x="232.5" y="85" width="4.3" height="15.0" fill="rgb(249,26,49)" rx="2" ry="2" />
<text  x="235.46" y="95.5" ></text>
</g>
<g >
<title>resnet.py:100:forward (104,448 bytes, 0.09%)</title><rect x="236.8" y="117" width="1.1" height="15.0" fill="rgb(224,6,23)" rx="2" ry="2" />
<text  x="239.76" y="127.5" ></text>
</g>
<g >
<title>resnet.py:96:forward (1,605,632 bytes, 1.44%)</title><rect x="145.0" y="117" width="17.0" height="15.0" fill="rgb(217,45,36)" rx="2" ry="2" />
<text  x="147.97" y="127.5" ></text>
</g>
<g >
<title>conv.py:459:_conv_forward (200,704 bytes, 0.18%)</title><rect x="237.9" y="69" width="2.1" height="15.0" fill="rgb(218,32,3)" rx="2" ry="2" />
<text  x="240.87" y="79.5" ></text>
</g>
<g >
<title>resnet.py:96:forward (6,555,648 bytes, 5.90%)</title><rect x="830.9" y="117" width="69.6" height="15.0" fill="rgb(234,34,12)" rx="2" ry="2" />
<text  x="833.93" y="127.5" >resnet...</text>
</g>
<g >
<title>functional.py:2444:batch_norm (3,211,776 bytes, 2.89%)</title><rect x="51.2" y="133" width="34.1" height="15.0" fill="rgb(233,126,33)" rx="2" ry="2" />
<text  x="54.20" y="143.5" >fu..</text>
</g>
<g >
<title>&lt;gaps&gt; (5,857,024 bytes, 5.27%)</title><rect x="756.2" y="229" width="62.2" height="15.0" fill="rgb(213,62,9)" rx="2" ry="2" />
<text  x="759.20" y="239.5" >&lt;gaps&gt;</text>
</g>
<g >
<title>container.py:204:forward (1,816,576 bytes, 1.63%)</title><rect x="217.5" y="149" width="19.3" height="15.0" fill="rgb(208,185,1)" rx="2" ry="2" />
<text  x="220.48" y="159.5" ></text>
</g>
<g >
<title>module.py:1186:_call_impl (1,605,632 bytes, 1.44%)</title><rect x="110.9" y="101" width="17.0" height="15.0" fill="rgb(253,208,52)" rx="2" ry="2" />
<text  x="113.87" y="111.5" ></text>
</g>
<g >
<title>resnet.py:268:_forward_impl (3,211,264 bytes, 2.89%)</title><rect x="17.1" y="181" width="34.1" height="15.0" fill="rgb(249,120,31)" rx="2" ry="2" />
<text  x="20.11" y="191.5" >re..</text>
</g>
<g >
<title>resnet.py:274:_forward_impl (3,617,792 bytes, 3.25%)</title><rect x="179.1" y="181" width="38.4" height="15.0" fill="rgb(229,190,20)" rx="2" ry="2" />
<text  x="182.07" y="191.5" >res..</text>
</g>
<g >
<title>resnet.py:97:forward (804,864 bytes, 0.72%)</title><rect x="208.9" y="117" width="8.6" height="15.0" fill="rgb(218,166,49)" rx="2" ry="2" />
<text  x="211.93" y="127.5" ></text>
</g>
<g >
<title>batchnorm.py:170:forward (208,896 bytes, 0.19%)</title><rect x="240.0" y="85" width="2.2" height="15.0" fill="rgb(224,19,11)" rx="2" ry="2" />
<text  x="243.00" y="95.5" ></text>
</g>
<g >
<title>eg.py:11:&lt;module&gt; (21,620,128 bytes, 19.45%)</title><rect x="17.1" y="229" width="229.5" height="15.0" fill="rgb(254,96,8)" rx="2" ry="2" />
<text  x="20.11" y="239.5" >eg.py:11:&lt;module&gt;</text>
</g>
<g >
<title>module.py:745:cuda (46,796,608 bytes, 42.10%)</title><rect x="246.6" y="213" width="496.8" height="15.0" fill="rgb(220,150,50)" rx="2" ry="2" />
<text  x="249.63" y="223.5" >module.py:745:cuda</text>
</g>
<g >
<title>resnet.py:92:forward (1,605,632 bytes, 1.44%)</title><rect x="110.9" y="117" width="17.0" height="15.0" fill="rgb(206,30,18)" rx="2" ry="2" />
<text  x="113.87" y="127.5" ></text>
</g>
<g >
<title>resnet.py:269:_forward_impl (3,211,776 bytes, 2.89%)</title><rect x="51.2" y="181" width="34.1" height="15.0" fill="rgb(206,70,30)" rx="2" ry="2" />
<text  x="54.20" y="191.5" >re..</text>
</g>
<g >
<title>module.py:1186:_call_impl (405,504 bytes, 0.36%)</title><rect x="232.5" y="101" width="4.3" height="15.0" fill="rgb(230,140,23)" rx="2" ry="2" />
<text  x="235.46" y="111.5" ></text>
</g>
<g >
<title>module.py:657:_apply (695,296 bytes, 0.63%)</title><rect x="246.6" y="133" width="7.4" height="15.0" fill="rgb(225,121,52)" rx="2" ry="2" />
<text  x="249.63" y="143.5" ></text>
</g>
<g >
<title>module.py:1186:_call_impl (208,896 bytes, 0.19%)</title><rect x="244.4" y="101" width="2.2" height="15.0" fill="rgb(248,68,5)" rx="2" ry="2" />
<text  x="247.35" y="111.5" ></text>
</g>
<g >
<title>module.py:1186:_call_impl (923,648 bytes, 0.83%)</title><rect x="236.8" y="165" width="9.8" height="15.0" fill="rgb(234,80,4)" rx="2" ry="2" />
<text  x="239.76" y="175.5" ></text>
</g>
<g >
<title>all (111,149,056 bytes, 100%)</title><rect x="10.0" y="277" width="1180.0" height="15.0" fill="rgb(244,76,52)" rx="2" ry="2" />
<text  x="13.00" y="287.5" ></text>
</g>
<g >
<title>eg.py:11:&lt;module&gt; (35,004,672 bytes, 31.49%)</title><rect x="818.4" y="229" width="371.6" height="15.0" fill="rgb(213,61,14)" rx="2" ry="2" />
<text  x="821.38" y="239.5" >eg.py:11:&lt;module&gt;</text>
</g>
<g >
<title>container.py:204:forward (104,448 bytes, 0.09%)</title><rect x="236.8" y="85" width="1.1" height="15.0" fill="rgb(235,28,40)" rx="2" ry="2" />
<text  x="239.76" y="95.5" ></text>
</g>
<g >
<title>batchnorm.py:170:forward (804,864 bytes, 0.72%)</title><rect x="208.9" y="85" width="8.6" height="15.0" fill="rgb(214,205,19)" rx="2" ry="2" />
<text  x="211.93" y="95.5" ></text>
</g>
<g >
<title>module.py:1186:_call_impl (6,424,576 bytes, 5.78%)</title><rect x="110.9" y="165" width="68.2" height="15.0" fill="rgb(236,167,54)" rx="2" ry="2" />
<text  x="113.87" y="175.5" >module...</text>
</g>
<g >
<title>conv.py:463:forward (26,218,496 bytes, 23.59%)</title><rect x="900.5" y="85" width="278.4" height="15.0" fill="rgb(244,135,41)" rx="2" ry="2" />
<text  x="903.52" y="95.5" >conv.py:463:forward</text>
</g>
<g >
<title>module.py:1186:_call_impl (402,432 bytes, 0.36%)</title><rect x="179.1" y="69" width="4.2" height="15.0" fill="rgb(205,197,24)" rx="2" ry="2" />
<text  x="182.07" y="79.5" ></text>
</g>
<g >
<title>conv.py:459:_conv_forward (401,408 bytes, 0.36%)</title><rect x="179.1" y="37" width="4.2" height="15.0" fill="rgb(241,196,52)" rx="2" ry="2" />
<text  x="182.08" y="47.5" ></text>
</g>
<g >
<title>resnet.py:93:forward (1,606,656 bytes, 1.45%)</title><rect x="127.9" y="117" width="17.1" height="15.0" fill="rgb(209,181,41)" rx="2" ry="2" />
<text  x="130.91" y="127.5" ></text>
</g>
<g >
<title>batchnorm.py:170:forward (208,896 bytes, 0.19%)</title><rect x="244.4" y="85" width="2.2" height="15.0" fill="rgb(250,3,19)" rx="2" ry="2" />
<text  x="247.35" y="95.5" ></text>
</g>
<g >
<title>resnet.py:271:_forward_impl (2,408,448 bytes, 2.17%)</title><rect x="85.3" y="181" width="25.6" height="15.0" fill="rgb(233,91,52)" rx="2" ry="2" />
<text  x="88.30" y="191.5" >r..</text>
</g>
<g >
<title>module.py:1186:_call_impl (3,211,264 bytes, 2.89%)</title><rect x="17.1" y="165" width="34.1" height="15.0" fill="rgb(223,158,3)" rx="2" ry="2" />
<text  x="20.11" y="175.5" >mo..</text>
</g>
<g >
<title>container.py:204:forward (26,218,496 bytes, 23.59%)</title><rect x="900.5" y="149" width="278.4" height="15.0" fill="rgb(205,147,21)" rx="2" ry="2" />
<text  x="903.52" y="159.5" >container.py:204:forward</text>
</g>
<g >
<title>functional.py:2444:batch_norm (405,504 bytes, 0.36%)</title><rect x="223.9" y="69" width="4.3" height="15.0" fill="rgb(207,70,34)" rx="2" ry="2" />
<text  x="226.89" y="79.5" ></text>
</g>
<g >
<title>module.py:1186:_call_impl (802,816 bytes, 0.72%)</title><rect x="200.4" y="101" width="8.5" height="15.0" fill="rgb(234,118,45)" rx="2" ry="2" />
<text  x="203.41" y="111.5" ></text>
</g>
<g >
<title>_jit_internal.py:485:fn (2,408,448 bytes, 2.17%)</title><rect x="85.3" y="133" width="25.6" height="15.0" fill="rgb(233,133,12)" rx="2" ry="2" />
<text  x="88.30" y="143.5" >_..</text>
</g>
<g >
<title>resnet.py:100:forward (402,432 bytes, 0.36%)</title><rect x="179.1" y="117" width="4.2" height="15.0" fill="rgb(211,28,20)" rx="2" ry="2" />
<text  x="182.07" y="127.5" ></text>
</g>
<g >
<title>module.py:1186:_call_impl (208,896 bytes, 0.19%)</title><rect x="240.0" y="101" width="2.2" height="15.0" fill="rgb(207,200,46)" rx="2" ry="2" />
<text  x="243.00" y="111.5" ></text>
</g>
<g >
<title>conv.py:463:forward (401,408 bytes, 0.36%)</title><rect x="228.2" y="85" width="4.3" height="15.0" fill="rgb(247,96,27)" rx="2" ry="2" />
<text  x="231.20" y="95.5" ></text>
</g>
<g >
<title>module.py:634:_apply (46,796,608 bytes, 42.10%)</title><rect x="246.6" y="197" width="496.8" height="15.0" fill="rgb(218,35,26)" rx="2" ry="2" />
<text  x="249.63" y="207.5" >module.py:634:_apply</text>
</g>
<g >
<title>container.py:204:forward (923,648 bytes, 0.83%)</title><rect x="236.8" y="149" width="9.8" height="15.0" fill="rgb(253,82,26)" rx="2" ry="2" />
<text  x="239.76" y="159.5" ></text>
</g>
<g >
<title>linear.py:114:forward (1,048,576 bytes, 0.94%)</title><rect x="1178.9" y="149" width="11.1" height="15.0" fill="rgb(227,203,30)" rx="2" ry="2" />
<text  x="1181.87" y="159.5" ></text>
</g>
<g >
<title>module.py:1186:_call_impl (26,218,496 bytes, 23.59%)</title><rect x="900.5" y="133" width="278.4" height="15.0" fill="rgb(247,107,4)" rx="2" ry="2" />
<text  x="903.52" y="143.5" >module.py:1186:_call_impl</text>
</g>
<g >
<title>conv.py:463:forward (200,704 bytes, 0.18%)</title><rect x="242.2" y="85" width="2.2" height="15.0" fill="rgb(211,185,49)" rx="2" ry="2" />
<text  x="245.22" y="95.5" ></text>
</g>
<g >
<title>module.py:634:_apply (44,705,944 bytes, 40.22%)</title><rect x="246.6" y="181" width="474.6" height="15.0" fill="rgb(254,130,9)" rx="2" ry="2" />
<text  x="249.63" y="191.5" >module.py:634:_apply</text>
</g>
<g >
<title>conv.py:463:forward (802,816 bytes, 0.72%)</title><rect x="200.4" y="85" width="8.5" height="15.0" fill="rgb(223,16,3)" rx="2" ry="2" />
<text  x="203.41" y="95.5" ></text>
</g>
<g >
<title>module.py:1186:_call_impl (1,816,576 bytes, 1.63%)</title><rect x="217.5" y="133" width="19.3" height="15.0" fill="rgb(230,221,48)" rx="2" ry="2" />
<text  x="220.48" y="143.5" ></text>
</g>
<g >
<title>module.py:1186:_call_impl (401,408 bytes, 0.36%)</title><rect x="219.6" y="101" width="4.3" height="15.0" fill="rgb(252,72,4)" rx="2" ry="2" />
<text  x="222.63" y="111.5" ></text>
</g>
<g >
<title>module.py:1186:_call_impl (1,816,576 bytes, 1.63%)</title><rect x="217.5" y="165" width="19.3" height="15.0" fill="rgb(209,28,5)" rx="2" ry="2" />
<text  x="220.48" y="175.5" ></text>
</g>
<g >
<title>resnet.py:97:forward (405,504 bytes, 0.36%)</title><rect x="232.5" y="117" width="4.3" height="15.0" fill="rgb(222,118,18)" rx="2" ry="2" />
<text  x="235.46" y="127.5" ></text>
</g>
<g >
<title>eg.py:8:&lt;module&gt; (46,796,608 bytes, 42.10%)</title><rect x="246.6" y="229" width="496.8" height="15.0" fill="rgb(235,42,8)" rx="2" ry="2" />
<text  x="249.63" y="239.5" >eg.py:8:&lt;module&gt;</text>
</g>
<g >
<title>functional.py:2444:batch_norm (804,864 bytes, 0.72%)</title><rect x="191.9" y="69" width="8.5" height="15.0" fill="rgb(227,111,36)" rx="2" ry="2" />
<text  x="194.87" y="79.5" ></text>
</g>
<g >
<title>module.py:1186:_call_impl (200,704 bytes, 0.18%)</title><rect x="242.2" y="101" width="2.2" height="15.0" fill="rgb(214,10,14)" rx="2" ry="2" />
<text  x="245.22" y="111.5" ></text>
</g>
<g >
<title>batchnorm.py:170:forward (1,606,656 bytes, 1.45%)</title><rect x="162.0" y="85" width="17.1" height="15.0" fill="rgb(214,93,0)" rx="2" ry="2" />
<text  x="165.01" y="95.5" ></text>
</g>
<g >
<title>module.py:1186:_call_impl (1,048,576 bytes, 0.94%)</title><rect x="1178.9" y="165" width="11.1" height="15.0" fill="rgb(226,93,24)" rx="2" ry="2" />
<text  x="1181.87" y="175.5" ></text>
</g>
<g >
<title>resnet.py:280:_forward_impl (1,048,576 bytes, 0.94%)</title><rect x="1178.9" y="181" width="11.1" height="15.0" fill="rgb(243,117,4)" rx="2" ry="2" />
<text  x="1181.87" y="191.5" ></text>
</g>
<g >
<title>conv.py:459:_conv_forward (6,555,648 bytes, 5.90%)</title><rect x="830.9" y="69" width="69.6" height="15.0" fill="rgb(209,22,35)" rx="2" ry="2" />
<text  x="833.93" y="79.5" >conv.py..</text>
</g>
<g >
<title>module.py:634:_apply (44,705,944 bytes, 40.22%)</title><rect x="246.6" y="165" width="474.6" height="15.0" fill="rgb(206,219,8)" rx="2" ry="2" />
<text  x="249.63" y="175.5" >module.py:634:_apply</text>
</g>
<g >
<title>module.py:1186:_call_impl (202,752 bytes, 0.18%)</title><rect x="217.5" y="101" width="2.1" height="15.0" fill="rgb(254,138,37)" rx="2" ry="2" />
<text  x="220.48" y="111.5" ></text>
</g>
<g >
<title>resnet.py:276:_forward_impl (923,648 bytes, 0.83%)</title><rect x="236.8" y="181" width="9.8" height="15.0" fill="rgb(252,8,54)" rx="2" ry="2" />
<text  x="239.76" y="191.5" ></text>
</g>
<g >
<title>module.py:657:_apply (2,090,144 bytes, 1.88%)</title><rect x="721.2" y="181" width="22.2" height="15.0" fill="rgb(228,18,18)" rx="2" ry="2" />
<text  x="724.25" y="191.5" >m..</text>
</g>
<g >
<title>module.py:1186:_call_impl (26,218,496 bytes, 23.59%)</title><rect x="900.5" y="101" width="278.4" height="15.0" fill="rgb(225,100,46)" rx="2" ry="2" />
<text  x="903.52" y="111.5" >module.py:1186:_call_impl</text>
</g>
<g >
<title>container.py:204:forward (7,737,600 bytes, 6.96%)</title><rect x="818.4" y="149" width="82.1" height="15.0" fill="rgb(230,219,42)" rx="2" ry="2" />
<text  x="821.38" y="159.5" >container..</text>
</g>
<g >
<title>batchnorm.py:170:forward (1,606,656 bytes, 1.45%)</title><rect x="127.9" y="85" width="17.1" height="15.0" fill="rgb(237,100,45)" rx="2" ry="2" />
<text  x="130.91" y="95.5" ></text>
</g>
<g >
<title>module.py:1186:_call_impl (804,864 bytes, 0.72%)</title><rect x="191.9" y="101" width="8.5" height="15.0" fill="rgb(218,26,11)" rx="2" ry="2" />
<text  x="194.87" y="111.5" ></text>
</g>
<g >
<title>conv.py:459:_conv_forward (3,211,264 bytes, 2.89%)</title><rect x="17.1" y="133" width="34.1" height="15.0" fill="rgb(233,82,15)" rx="2" ry="2" />
<text  x="20.11" y="143.5" >co..</text>
</g>
<g >
<title>module.py:1186:_call_impl (6,424,576 bytes, 5.78%)</title><rect x="110.9" y="133" width="68.2" height="15.0" fill="rgb(234,138,16)" rx="2" ry="2" />
<text  x="113.87" y="143.5" >module...</text>
</g>
<g >
<title>resnet.py:275:_forward_impl (7,737,600 bytes, 6.96%)</title><rect x="818.4" y="181" width="82.1" height="15.0" fill="rgb(224,224,4)" rx="2" ry="2" />
<text  x="821.38" y="191.5" >resnet.py..</text>
</g>
<g >
<title>resnet.py:275:_forward_impl (1,816,576 bytes, 1.63%)</title><rect x="217.5" y="181" width="19.3" height="15.0" fill="rgb(213,45,36)" rx="2" ry="2" />
<text  x="220.48" y="191.5" ></text>
</g>
<g >
<title>conv.py:463:forward (802,816 bytes, 0.72%)</title><rect x="183.3" y="85" width="8.6" height="15.0" fill="rgb(219,64,38)" rx="2" ry="2" />
<text  x="186.34" y="95.5" ></text>
</g>
<g >
<title>resnet.py:276:_forward_impl (26,218,496 bytes, 23.59%)</title><rect x="900.5" y="181" width="278.4" height="15.0" fill="rgb(221,20,34)" rx="2" ry="2" />
<text  x="903.52" y="191.5" >resnet.py:276:_forward_impl</text>
</g>
<g >
<title>resnet.py:97:forward (1,606,656 bytes, 1.45%)</title><rect x="162.0" y="117" width="17.1" height="15.0" fill="rgb(232,140,36)" rx="2" ry="2" />
<text  x="165.01" y="127.5" ></text>
</g>
</g>
</svg>
